<svg xmlns="http://www.w3.org/2000/svg" viewBox="0 0 1409 939"><defs><style>.cls-1{font-size:494.87px;}.cls-1,.cls-2,.cls-3{fill:#f9df4b;}.cls-1,.cls-2{font-family:BrightYoungThings, Bright Young Things;}.cls-2{font-size:177.24px;}</style></defs><title>ilma taustata</title><g id="Layer_1" data-name="Layer 1"><text class="cls-1" transform="translate(38.72 420.69) scale(0.72 1)">Crypto4u</text><text class="cls-2" transform="translate(82.41 725.67) scale(0.73 1)">By PyhaPadi</text><path class="cls-3" d="M879.28,758.61l16.57,26.68a7,7,0,0,0,10.22,2.2l161.5-119c30,29.07,74.44,32.68,107.93,8,40.2-29.64,50.61-89.66,23.18-133.8s-82.44-56-122.64-26.33c-33.49,24.69-46.93,70.94-33.33,112.1l-58.2,42.89-29-46.7a7,7,0,0,0-10.22-2.19L921,640.34A8.48,8.48,0,0,0,919,651.49l12.44,20-12.16,9-12.43-20a7,7,0,0,0-10.22-2.2l-24.31,17.92a8.48,8.48,0,0,0-1.93,11.15l29,46.7-18.23,13.44A8.47,8.47,0,0,0,879.28,758.61Zm205-228.93c33.51-24.7,79.36-14.86,102.21,21.93s14.18,86.81-19.32,111.5c-29.34,21.62-68.73,17.19-93.67-10.53a6.91,6.91,0,0,0-9.37-1.06L903.86,769.66l-8.29-13.34,160.31-118.14a8.44,8.44,0,0,0,2.58-9.87C1044.11,592.78,1055,551.3,1084.32,529.68ZM886.73,685l12.15-8.95,12.43,20a7,7,0,0,0,10.22,2.19l24.31-17.91a8.47,8.47,0,0,0,1.93-11.15l-12.43-20,12.15-9,24.87,40-60.77,44.78Z" transform="translate(15 -3)"/><path class="cls-3" d="M1128.5,634c20.68,0,37.5-17.72,37.5-39.5s-16.82-39.5-37.5-39.5-37.5,17.72-37.5,39.5S1107.82,634,1128.5,634Zm0-59.25c10.34,0,18.75,8.86,18.75,19.75s-8.41,19.75-18.75,19.75-18.75-8.86-18.75-19.75S1118.16,574.75,1128.5,574.75Z" transform="translate(15 -3)"/><path class="cls-3" d="M1100.5,835c20.68,0,37.5-17.72,37.5-39.5s-16.82-39.5-37.5-39.5-37.5,17.72-37.5,39.5S1079.82,835,1100.5,835Zm0-59.25c10.34,0,18.75,8.86,18.75,19.75s-8.41,19.75-18.75,19.75-18.75-8.86-18.75-19.75S1090.16,775.75,1100.5,775.75Z" transform="translate(15 -3)"/></g><g id="Layer_2" data-name="Layer 2"><path class="cls-3" d="M1342.6,609.78,1323.44,585a7.34,7.34,0,0,0-10.69-1.17L1155.86,717.62c-33.18-25.86-79.18-25.09-111.71,2.67-39.06,33.32-45.06,93.83-13.37,134.9s89.25,47.38,128.31,14.06c32.53-27.76,42.74-74.92,25.51-114.39l56.53-48.23,33.53,43.45a7.35,7.35,0,0,0,10.69,1.17L1309,731.11a8.29,8.29,0,0,0,1.12-11.25l-14.37-18.62,11.8-10.07,14.37,18.62a7.34,7.34,0,0,0,10.69,1.17l23.62-20.14a8.27,8.27,0,0,0,1.11-11.24l-33.52-43.45,17.71-15.1A8.29,8.29,0,0,0,1342.6,609.78ZM1149.51,856.83C1117,884.6,1069,879.35,1042.59,845.12s-21.41-84.65,11.14-112.42A73.13,73.13,0,0,1,1151,734a7.33,7.33,0,0,0,9.73.13l155.72-132.84,9.58,12.41L1170.27,746.49a8.27,8.27,0,0,0-1.88,10C1186,790.34,1178,832.52,1149.51,856.83Zm191.2-173.39-11.81,10.08-14.37-18.62a7.35,7.35,0,0,0-10.69-1.18l-23.61,20.15a8.28,8.28,0,0,0-1.12,11.24l14.37,18.62-11.81,10.07-28.73-37.24,59-50.36Z" transform="translate(15 -3)"/></g></svg>